<svg width="18" height="15" viewBox="0 0 18 15" fill="none" xmlns="http://www.w3.org/2000/svg">
<path d="M14.2809 1.91144C14.4982 1.91144 14.6612 1.84625 14.7699 1.71588C14.8785 1.5855 14.9328 1.43339 14.9328 1.25956C14.9328 1.08573 14.8785 0.944486 14.7699 0.83584C14.6612 0.727194 14.4982 0.672871 14.2809 0.672871H3.32939C3.1121 0.672871 2.94913 0.727194 2.84048 0.83584C2.73184 0.944486 2.67751 1.08573 2.67751 1.25956C2.67751 1.43339 2.73184 1.5855 2.84048 1.71588C2.94913 1.84625 3.1121 1.91144 3.32939 1.91144H14.2809ZM14.2809 14.1016C14.4982 14.1016 14.6612 14.0472 14.7699 13.9386C14.8785 13.8299 14.9328 13.6887 14.9328 13.5149C14.9328 13.341 14.8785 13.1889 14.7699 13.0586C14.6612 12.9282 14.4982 12.863 14.2809 12.863H3.32939C3.1121 12.863 2.94913 12.9282 2.84048 13.0586C2.73184 13.1889 2.67751 13.341 2.67751 13.5149C2.67751 13.6887 2.73184 13.8299 2.84048 13.9386C2.94913 14.0472 3.1121 14.1016 3.32939 14.1016H14.2809ZM16.7581 6.80053H0.852254C0.67842 6.80053 0.53718 6.85485 0.428534 6.9635C0.319887 7.07214 0.265564 7.21338 0.265564 7.38722C0.265564 7.56105 0.319887 7.70229 0.428534 7.81094C0.53718 7.91958 0.67842 7.97391 0.852254 7.97391H16.7581C16.9319 7.97391 17.0732 7.91958 17.1818 7.81094C17.2905 7.70229 17.3448 7.56105 17.3448 7.38722C17.3448 7.21338 17.2905 7.07214 17.1818 6.9635C17.0732 6.85485 16.9319 6.80053 16.7581 6.80053Z" fill="#111111"/>
</svg>
