<svg width="19" height="15" viewBox="0 0 19 15" fill="none" xmlns="http://www.w3.org/2000/svg">
<path d="M17.5989 0.366862C18.1789 0.334639 18.6945 0.785764 18.6623 1.33356V12.225C18.6623 12.7406 18.2434 13.1917 17.6956 13.2239C16.1166 13.2884 12.8943 13.6106 10.6709 14.7384C10.3165 14.8995 9.89756 14.674 9.89756 14.2873V2.55804C9.89756 2.39693 9.99423 2.23581 10.1554 2.13914C12.3143 0.817987 15.8266 0.463532 17.5989 0.366862ZM8.64086 2.13914C8.80197 2.23581 8.89864 2.39693 8.89864 2.55804V14.2873C8.89864 14.674 8.47974 14.8995 8.12529 14.7384C5.90188 13.6106 2.67956 13.2884 1.10062 13.2239C0.552828 13.1917 0.133926 12.7406 0.133926 12.225V1.33356C0.133926 0.785764 0.617275 0.334639 1.19729 0.366862C2.96957 0.463532 6.4819 0.817987 8.64086 2.13914Z" fill="white"/>
</svg>
