<svg width="3" height="10" viewBox="0 0 3 10" fill="none" xmlns="http://www.w3.org/2000/svg">
<g clip-path="url(#clip0_151_164)">
<path d="M2.15873 7.54165L2.40655 7.29383L2.15873 7.54165C2.29089 7.67382 2.3809 7.84221 2.41737 8.02553C2.45383 8.20886 2.43512 8.39888 2.36359 8.57156C2.29206 8.74425 2.17093 8.89184 2.01552 8.99568L2.20265 9.27576L2.01552 8.99569C1.86011 9.09953 1.67739 9.15495 1.49048 9.15495C1.23983 9.15495 0.999456 9.05539 0.822225 8.87816C0.644994 8.70092 0.545426 8.46055 0.545426 8.20991C0.545426 8.02299 0.600853 7.84028 0.704696 7.68486C0.80854 7.52945 0.956136 7.40832 1.12882 7.33679C1.30151 7.26526 1.49152 7.24655 1.67485 7.28301C1.85817 7.31948 2.02656 7.40949 2.15873 7.54165ZM0.545426 4.75516C0.545426 4.56825 0.600853 4.38553 0.704696 4.23012C0.80854 4.0747 0.956136 3.95358 1.12882 3.88205C1.30151 3.81052 1.49152 3.7918 1.67485 3.82827C1.85817 3.86473 2.02656 3.95474 2.15873 4.08691C2.29089 4.21908 2.3809 4.38747 2.41737 4.57079C2.45383 4.75411 2.43512 4.94413 2.36359 5.11681C2.29206 5.2895 2.17093 5.4371 2.01552 5.54094C1.8601 5.64478 1.67739 5.70021 1.49048 5.70021C1.23983 5.70021 0.999456 5.60064 0.822225 5.42341C0.644994 5.24618 0.545426 5.0058 0.545426 4.75516ZM0.545426 1.30041C0.545426 1.1135 0.600853 0.930784 0.704696 0.775372C0.808539 0.619959 0.956136 0.49883 1.12882 0.427301C1.30151 0.355773 1.49152 0.337058 1.67485 0.373522C1.85817 0.409987 2.02656 0.499995 2.15873 0.632162C2.29089 0.76433 2.3809 0.932721 2.41737 1.11604C2.45383 1.29936 2.43512 1.48938 2.36359 1.66207C2.29206 1.83475 2.17093 1.98235 2.01552 2.08619C1.8601 2.19004 1.67739 2.24546 1.49048 2.24546C1.23983 2.24546 0.999456 2.1459 0.822225 1.96866C0.644994 1.79143 0.545426 1.55106 0.545426 1.30041Z" stroke="#818181" stroke-width="0.70096"/>
</g>
<defs>
<clipPath id="clip0_151_164">
<rect width="2.59106" height="9.50055" fill="white" transform="translate(0.195312 0.00488281)"/>
</clipPath>
</defs>
</svg>
