<svg width="8" height="9" viewBox="0 0 8 9" fill="none" xmlns="http://www.w3.org/2000/svg">
<path d="M6.34666 5.54321C6.14756 5.54321 5.95984 5.58445 5.7835 5.66694C5.60715 5.74942 5.45641 5.85608 5.33126 5.98692L3.39432 4.85206C3.39432 4.77811 3.40143 4.71127 3.41565 4.65154C3.42987 4.59181 3.43698 4.52497 3.43698 4.45102C3.43698 4.38275 3.42845 4.31734 3.41138 4.25476C3.39432 4.19219 3.37725 4.12393 3.36019 4.04998L5.2886 2.92365C5.4365 3.05448 5.60004 3.15972 5.77923 3.23936C5.95842 3.319 6.14756 3.35882 6.34666 3.35882C6.74486 3.35882 7.08759 3.21661 7.37486 2.93218C7.66213 2.64775 7.80577 2.30644 7.80577 1.90825C7.80577 1.50436 7.66213 1.16021 7.37486 0.875779C7.08759 0.591353 6.74486 0.44914 6.34666 0.44914C5.94846 0.44914 5.60573 0.591353 5.31846 0.875779C5.03119 1.16021 4.88756 1.50436 4.88756 1.90825C4.88756 1.97651 4.89609 2.04193 4.91315 2.1045C4.93022 2.16707 4.94728 2.23534 4.96435 2.30929L2.99328 3.43562C2.86813 3.30478 2.71738 3.19954 2.54104 3.1199C2.36469 3.04026 2.17697 3.00044 1.97787 3.00044C1.57968 3.00044 1.23694 3.14266 0.949674 3.42708C0.662404 3.71151 0.518768 4.05282 0.518768 4.45102C0.518768 4.8549 0.662404 5.19906 0.949674 5.48348C1.23694 5.76791 1.57968 5.91012 1.97787 5.91012C2.17697 5.91012 2.36469 5.86888 2.54104 5.7864C2.71738 5.70391 2.86813 5.6001 2.99328 5.47495L4.93022 6.60128C4.93022 6.67523 4.92311 6.74207 4.90889 6.8018C4.89467 6.86153 4.88756 6.92837 4.88756 7.00232C4.88756 7.40052 5.03119 7.74325 5.31846 8.03052C5.60573 8.31779 5.94846 8.46143 6.34666 8.46143C6.74486 8.46143 7.08759 8.31779 7.37486 8.03052C7.66213 7.74325 7.80577 7.40052 7.80577 7.00232C7.80577 6.60412 7.66213 6.26139 7.37486 5.97412C7.08759 5.68685 6.74486 5.54321 6.34666 5.54321ZM6.34666 1.17443C6.54576 1.17443 6.71642 1.24553 6.85863 1.38775C7.00084 1.52996 7.07195 1.70346 7.07195 1.90825C7.07195 2.10734 7.00084 2.278 6.85863 2.42021C6.71642 2.56243 6.54576 2.63353 6.34666 2.63353C6.14756 2.63353 5.97691 2.56243 5.83469 2.42021C5.69248 2.278 5.62137 2.10734 5.62137 1.90825C5.62137 1.70346 5.69248 1.52996 5.83469 1.38775C5.97691 1.24553 6.14756 1.17443 6.34666 1.17443ZM1.97787 5.18484C1.77878 5.18484 1.60812 5.11373 1.46591 4.97152C1.32369 4.8293 1.25259 4.6558 1.25259 4.45102C1.25259 4.25192 1.32369 4.08126 1.46591 3.93905C1.60812 3.79684 1.77878 3.72573 1.97787 3.72573C2.17697 3.72573 2.34763 3.79684 2.48984 3.93905C2.63206 4.08126 2.70316 4.25192 2.70316 4.45102C2.70316 4.6558 2.63206 4.8293 2.48984 4.97152C2.34763 5.11373 2.17697 5.18484 1.97787 5.18484ZM6.34666 7.72761C6.14756 7.72761 5.97691 7.6565 5.83469 7.51429C5.69248 7.37207 5.62137 7.20142 5.62137 7.00232C5.62137 6.92837 5.62991 6.86295 5.64697 6.80607C5.66404 6.74918 5.68964 6.69229 5.72377 6.63541C5.78065 6.52733 5.8674 6.44058 5.98402 6.37516C6.10063 6.30974 6.22151 6.27703 6.34666 6.27703C6.54576 6.27703 6.71642 6.34814 6.85863 6.49035C7.00084 6.63257 7.07195 6.80322 7.07195 7.00232C7.07195 7.20142 7.00084 7.37207 6.85863 7.51429C6.71642 7.6565 6.54576 7.72761 6.34666 7.72761Z" fill="#818181"/>
</svg>
