<svg width="11" height="13" viewBox="0 0 11 13" fill="none" xmlns="http://www.w3.org/2000/svg">
<path d="M3.49735 8.05531C3.57805 8.2729 1.33013 10.2805 2.64143 11.9072C2.94841 12.2879 3.98911 10.0858 5.46719 9.08866C6.28258 8.53862 8.17993 7.36776 8.17993 6.72098L8.17993 2.53298C8.17993 1.75433 5.1716 0.930488 2.88449 0.930488C2.04731 0.930488 0.832983 6.18061 0.832983 7.01474C0.832983 7.8518 3.41666 7.83759 3.49735 8.05531ZM8.79217 7.99702C9.19478 7.99702 10.6289 7.75213 10.6289 6.08584L10.6289 3.11767C10.6289 1.45126 9.19478 1.26759 8.79217 1.26759C8.38968 1.26759 9.40442 1.61816 9.40442 2.6509L9.40442 6.55261C9.40442 7.63531 8.38968 7.99702 8.79217 7.99702Z" stroke="#909090" stroke-width="0.734694"/>
</svg>
