<svg width="11" height="13" viewBox="0 0 11 13" fill="none" xmlns="http://www.w3.org/2000/svg">
<path d="M7.8818 5.22692C7.80111 5.00933 10.049 3.00177 8.73772 1.37504C8.43074 0.994343 7.39004 3.19647 5.91196 4.19357C5.09657 4.74361 3.19922 5.91447 3.19922 6.56124V10.7492C3.19922 11.5279 6.20755 12.3517 8.49466 12.3517C9.33184 12.3517 10.5462 7.10161 10.5462 6.26749C10.5462 5.43043 7.96249 5.44463 7.8818 5.22692ZM2.58698 5.2852C2.18437 5.2852 0.750244 5.5301 0.750244 7.19639V10.1646C0.750244 11.831 2.18437 12.0146 2.58698 12.0146C2.98947 12.0146 1.97473 11.6641 1.97473 10.6313V6.72961C1.97473 5.64692 2.98947 5.2852 2.58698 5.2852Z" stroke="#909090" stroke-width="0.734694"/>
</svg>
