<svg width="9" height="9" viewBox="0 0 9 9" fill="none" xmlns="http://www.w3.org/2000/svg">
<path d="M4.34486 0.00236225C3.78739 0.00236225 3.26689 0.1076 2.78336 0.318076C2.29415 0.522862 1.86893 0.807289 1.50771 1.17135C1.14649 1.53542 0.860643 1.95921 0.650167 2.44274C0.445381 2.93195 0.342987 3.45245 0.342987 4.00424C0.342987 4.56171 0.445381 5.08221 0.650167 5.56574C0.860643 6.05495 1.14649 6.48017 1.50771 6.84139C1.86893 7.20261 2.29415 7.48846 2.78336 7.69894C3.26689 7.90941 3.78739 8.01465 4.34486 8.01465C4.90234 8.01465 5.42284 7.90941 5.90636 7.69894C6.39558 7.48846 6.82079 7.20261 7.18202 6.84139C7.54324 6.48017 7.82909 6.05495 8.03956 5.56574C8.24435 5.08221 8.34674 4.56171 8.34674 4.00424C8.34674 3.45245 8.24435 2.93195 8.03956 2.44274C7.82909 1.95921 7.54324 1.53542 7.18202 1.17135C6.82079 0.807289 6.39558 0.522862 5.90636 0.318076C5.42284 0.1076 4.90234 0.00236225 4.34486 0.00236225ZM4.34486 7.28083C3.88978 7.28083 3.46314 7.1955 3.06495 7.02485C2.66675 6.85419 2.31975 6.62096 2.02395 6.32516C1.72814 6.02935 1.49491 5.68235 1.32426 5.28416C1.1536 4.88596 1.06827 4.45932 1.06827 4.00424C1.06827 3.54916 1.1536 3.12252 1.32426 2.72432C1.49491 2.32612 1.72814 1.97912 2.02395 1.68332C2.31975 1.38752 2.66675 1.15429 3.06495 0.983633C3.46314 0.812977 3.88978 0.727649 4.34486 0.727649C4.79995 0.727649 5.22659 0.812977 5.62478 0.983633C6.02298 1.15429 6.36998 1.38752 6.66578 1.68332C6.96159 1.97912 7.19481 2.32612 7.36547 2.72432C7.53613 3.12252 7.62145 3.54916 7.62145 4.00424C7.62145 4.45932 7.53613 4.88596 7.36547 5.28416C7.19481 5.68235 6.96159 6.02935 6.66578 6.32516C6.36998 6.62096 6.02298 6.85419 5.62478 7.02485C5.22659 7.1955 4.79995 7.28083 4.34486 7.28083ZM5.94903 4.40528L4.71177 3.79092V1.81985C4.71177 1.71176 4.67764 1.62501 4.60938 1.5596C4.54112 1.49418 4.45295 1.46147 4.34486 1.46147C4.23678 1.46147 4.14861 1.49418 4.08035 1.5596C4.01209 1.62501 3.97795 1.71176 3.97795 1.81985V4.00424C3.97795 4.07819 3.99644 4.14219 4.03342 4.19623C4.07039 4.25027 4.12586 4.2972 4.19981 4.33702L5.65891 5.0623C5.67598 5.07937 5.69447 5.08932 5.71438 5.09217C5.73429 5.09501 5.76415 5.09644 5.80397 5.09644C5.87223 5.09644 5.93481 5.07937 5.99169 5.04524C6.04858 5.01111 6.09409 4.95707 6.12822 4.88312C6.16235 4.80917 6.16377 4.72526 6.13248 4.6314C6.1012 4.53754 6.04004 4.46217 5.94903 4.40528Z" fill="#818181"/>
</svg>
