<svg width="6" height="8" viewBox="0 0 6 8" fill="none" xmlns="http://www.w3.org/2000/svg">
<path d="M5.70383 6.92238V3.27888C5.70383 3.17649 5.66828 3.08974 5.59717 3.01863C5.52607 2.94753 5.43932 2.91197 5.33692 2.91197C5.23453 2.91197 5.14778 2.94753 5.07667 3.01863C5.00557 3.08974 4.97001 3.17649 4.97001 3.27888V6.92238C4.97001 7.01909 5.00557 7.103 5.07667 7.1741C5.14778 7.24521 5.23453 7.28076 5.33692 7.28076C5.43932 7.28076 5.52607 7.24521 5.59717 7.1741C5.66828 7.103 5.70383 7.01909 5.70383 6.92238ZM3.51944 6.92238V1.09449C3.51944 0.992098 3.48389 0.905348 3.41278 0.834241C3.34167 0.763135 3.25492 0.727582 3.15253 0.727582C3.05014 0.727582 2.96339 0.763135 2.89228 0.834241C2.82117 0.905348 2.78562 0.992098 2.78562 1.09449V6.92238C2.78562 7.01909 2.82117 7.103 2.89228 7.1741C2.96339 7.24521 3.05014 7.28076 3.15253 7.28076C3.25492 7.28076 3.34167 7.24521 3.41278 7.1741C3.48389 7.103 3.51944 7.01909 3.51944 6.92238ZM1.33505 6.92238V4.73799C1.33505 4.6356 1.29949 4.54885 1.22839 4.47774C1.15728 4.40663 1.07053 4.37108 0.968137 4.37108C0.865743 4.37108 0.778993 4.40663 0.707887 4.47774C0.63678 4.54885 0.601227 4.6356 0.601227 4.73799V6.92238C0.601227 7.01909 0.63678 7.103 0.707887 7.1741C0.778993 7.24521 0.865743 7.28076 0.968137 7.28076C1.07053 7.28076 1.15728 7.24521 1.22839 7.1741C1.29949 7.103 1.33505 7.01909 1.33505 6.92238Z" fill="#818181"/>
</svg>
